HIERARCHY
ROOT Joint1
{
	OFFSET 0.000000 0.000000 0.000000
	CHANNELS 6 Xposition Yposition Zposition Xrotation Yrotation Zrotation
	JOINT Joint2
	{
		OFFSET -0.000000 0.000000 1.456275
		CHANNELS 6 Xposition Yposition Zposition Xrotation Yrotation Zrotation
		JOINT Joint3
		{
			OFFSET -0.000000 0.000002 1.471446
			CHANNELS 6 Xposition Yposition Zposition Xrotation Yrotation Zrotation
			JOINT Joint4
			{
				OFFSET 0.625745 0.000000 0.917755
				CHANNELS 6 Xposition Yposition Zposition Xrotation Yrotation Zrotation
				JOINT Joint5
				{
					OFFSET -0.629534 0.000001 0.940221
					CHANNELS 6 Xposition Yposition Zposition Xrotation Yrotation Zrotation
					JOINT Joint6
					{
						OFFSET -0.000001 0.113772 1.960660
						CHANNELS 6 Xposition Yposition Zposition Xrotation Yrotation Zrotation
						JOINT Joint7
						{
							OFFSET -0.669733 -0.113771 0.388340
							CHANNELS 6 Xposition Yposition Zposition Xrotation Yrotation Zrotation
							End Site
							{
								OFFSET 0.005509 0.005509 0.438980
							}
						}
					}
				}
			}
		}
	}
}
MOTION
Frames: 22
Frame Time: 0.041667
0.000000 0.000000 0.000000 -0.000000 1.019410 -62.782552 -0.000000 -0.000000 1.456275 -0.000000 6.997246 -0.000001 -0.000000 0.000002 1.471446 -0.000002 -1.133457 41.586105 0.625745 0.000000 0.917755 0.000005 101.382055 -0.000013 -0.629534 0.000001 0.940221 0.000000 1.709736 1.174867 -0.000000 0.113772 1.960661 -88.303882 126.175696 0.000004 -0.669734 -0.113771 0.388340 0.282335 2.793320 58.854237 
0.000000 0.000000 0.000000 -0.000000 1.019410 -60.820724 -0.000000 0.000000 1.456275 0.000000 5.373037 0.000000 -0.000000 0.000002 1.471446 -0.000001 -1.133457 40.285706 0.625745 0.000000 0.917755 -0.000009 102.433249 0.000000 -0.629534 0.000001 0.940220 -0.000003 1.709737 1.137722 -0.000001 0.113772 1.960660 -88.303875 125.044617 0.000003 -0.669733 -0.113771 0.388340 0.271377 2.834050 61.231464 
0.000000 0.000000 0.000000 -0.000000 1.019410 -58.858868 -0.000000 -0.000000 1.456275 -0.000000 3.748810 -0.000000 -0.000000 0.000002 1.471446 -0.000001 -1.133457 38.985289 0.625744 0.000000 0.917755 0.000005 103.484456 -0.000008 -0.629534 0.000001 0.940221 -0.000001 1.709738 1.100577 -0.000000 0.113772 1.960660 -88.303875 123.913510 0.000003 -0.669734 -0.113771 0.388340 0.258733 2.874296 63.608800 
0.000000 0.000000 0.000000 -0.000000 1.019410 -56.896985 -0.000000 -0.000000 1.456275 0.000000 2.124557 -0.000002 -0.000000 0.000002 1.471446 -0.000001 -1.133457 37.684852 0.625745 0.000000 0.917755 0.000010 104.535683 0.000002 -0.629533 0.000001 0.940221 -0.000001 1.709737 1.063430 -0.000001 0.113772 1.960661 -88.303875 122.782390 0.000000 -0.669733 -0.113771 0.388340 0.244427 2.913979 65.986273 
0.000000 0.000000 0.000000 -0.000000 1.019410 -54.935177 -0.000000 0.000000 1.456275 -0.000000 0.500372 -0.000000 -0.000000 0.000002 1.471446 -0.000001 -1.133457 36.384466 0.625745 0.000000 0.917755 0.000001 105.586863 -0.000008 -0.629534 0.000001 0.940220 -0.000002 1.709736 1.026285 -0.000001 0.113772 1.960661 -88.303882 121.651325 0.000004 -0.669733 -0.113771 0.388340 0.228488 2.953033 68.363732 
0.000000 0.000000 0.000000 -0.000000 1.019410 -52.973486 -0.000000 0.000000 1.456275 -0.000000 -1.123722 -0.000000 -0.000000 0.000002 1.471446 -0.000001 -1.133457 35.084155 0.625745 0.000000 0.917754 0.000003 106.637981 -0.000003 -0.629534 0.000001 0.940221 -0.000002 1.709735 0.989142 -0.000000 0.113772 1.960660 -88.303882 120.520300 0.000008 -0.669734 -0.113771 0.388340 0.210941 2.991401 70.741157 
0.000000 0.000000 0.000000 -0.000000 1.019410 -51.011493 -0.000000 -0.000000 1.456275 -0.000000 -2.748066 -0.000002 -0.000000 0.000002 1.471446 -0.000001 -1.133457 33.783646 0.625745 0.000000 0.917755 0.000016 107.689264 -0.000008 -0.629534 0.000001 0.940221 -0.000001 1.709736 0.951993 -0.000001 0.113772 1.960660 -88.303882 119.389139 0.000006 -0.669733 -0.113771 0.388341 0.191811 3.029003 73.119047 
0.000000 0.000000 0.000000 -0.000000 1.019410 -49.049084 -0.000000 0.000000 1.456275 -0.000000 -4.372752 -0.000002 -0.000000 0.000002 1.471446 -0.000001 -1.133457 32.482853 0.625744 0.000000 0.917754 0.000003 108.740771 -0.000007 -0.629534 0.000001 0.940220 -0.000000 1.709737 0.914837 -0.000001 0.113772 1.960660 -88.303875 118.257718 0.000005 -0.669733 -0.113771 0.388339 0.171128 3.065790 75.497537 
0.000000 0.000000 0.000000 -0.000000 1.019410 -47.087809 -0.000000 0.000000 1.456275 -0.000000 -5.996502 0.000001 -0.000000 0.000002 1.471446 -0.000001 -1.133457 31.182829 0.625744 0.000000 0.917755 0.000013 109.791671 -0.000003 -0.629534 0.000001 0.940221 -0.000002 1.709736 0.877702 -0.000000 0.113772 1.960660 -88.303882 117.126925 0.000003 -0.669733 -0.113771 0.388340 0.148948 3.101673 77.874737 
0.000000 0.000000 0.000000 -0.000000 1.019410 -45.128078 -0.000000 -0.000000 1.456275 -0.000000 -7.618979 -0.000001 -0.000000 0.000002 1.471446 -0.000001 -1.133458 29.883809 0.625745 0.000000 0.917755 0.000010 110.841731 -0.000006 -0.629534 0.000001 0.940221 0.000001 1.709737 0.840596 -0.000001 0.113772 1.960660 -88.303875 115.997048 0.000003 -0.669733 -0.113771 0.388340 0.125315 3.136581 80.250167 
0.000000 0.000000 0.000000 -0.000000 1.019410 -43.164125 -0.000000 0.000000 1.456275 0.000000 -9.244943 0.000001 -0.000000 0.000002 1.471446 -0.000001 -1.133457 28.582006 0.625745 0.000000 0.917755 0.000008 111.894071 -0.000006 -0.629534 0.000001 0.940221 -0.000000 1.709735 0.803410 -0.000001 0.113772 1.960660 -88.303875 114.864753 0.000010 -0.669733 -0.113771 0.388340 0.100199 3.170540 82.630809 
0.000000 0.000000 0.000000 -0.000000 1.019410 -41.194418 -0.000000 -0.000000 1.456275 -0.000000 -10.875668 0.000004 -0.000000 0.000002 1.471446 0.000000 -1.133457 27.276383 0.625745 0.000000 0.917755 0.000003 112.949486 -0.000005 -0.629533 0.000001 0.940221 -0.000000 1.709737 0.766116 -0.000000 0.113772 1.960660 -88.303875 113.729132 0.000007 -0.669733 -0.113771 0.388340 0.073610 3.203534 85.018506 
0.000000 0.000000 0.000000 -0.000000 1.019410 -39.240437 -0.000000 -0.000000 1.456275 0.000001 -12.493377 0.000001 -0.000000 0.000002 1.471446 -0.000000 -1.133458 25.981188 0.625745 0.000000 0.917755 0.000007 113.996465 -0.000000 -0.629533 0.000001 0.940221 0.000002 1.709737 0.729118 -0.000001 0.113772 1.960661 -88.303862 112.602567 0.000003 -0.669733 -0.113771 0.388341 0.045892 3.235139 87.387237 
0.000000 0.000000 0.000000 -0.000000 1.019410 -37.307931 -0.000000 -0.000000 1.456275 -0.000000 -14.093312 0.000003 -0.000000 0.000002 1.471446 -0.000001 -1.133458 24.700220 0.625745 0.000000 0.917755 0.000004 115.031942 -0.000003 -0.629533 0.000001 0.940221 -0.000000 1.709736 0.692528 -0.000001 0.113772 1.960660 -88.303875 111.488379 0.000002 -0.669733 -0.113771 0.388340 0.017217 3.265248 89.730019 
0.000000 0.000000 0.000000 -0.000000 1.019410 -35.316753 -0.000000 -0.000000 1.456275 0.000000 -15.741815 -0.000002 -0.000000 0.000002 1.471446 0.000000 -1.133457 23.380366 0.625745 0.000000 0.917755 0.000006 116.098872 -0.000002 -0.629533 0.000001 0.940221 -0.000001 1.709737 0.654827 -0.000001 0.113772 1.960660 -88.303868 110.340374 0.000008 -0.669733 -0.113771 0.388341 -0.013594 3.295017 92.144019 
0.000000 0.000000 0.000000 -0.000000 1.019410 -33.245434 -0.000000 -0.000000 1.456275 0.000001 -17.456667 0.000001 -0.000000 0.000002 1.471445 0.000001 -1.133456 22.007390 0.625745 0.000000 0.917755 0.000003 117.208724 -0.000002 -0.629534 0.000001 0.940221 -0.000001 1.709736 0.615609 -0.000001 0.113772 1.960660 -88.303875 109.146170 0.000007 -0.669733 -0.113771 0.388340 -0.046949 3.324578 94.655268 
0.000000 0.000000 0.000000 -0.000000 1.019410 -31.393066 -0.000000 0.000000 1.456275 0.000000 -18.990252 -0.000003 -0.000000 0.000002 1.471446 0.000000 -1.133456 20.779541 0.625745 0.000000 0.917755 0.000006 118.201287 -0.000001 -0.629533 0.000001 0.940221 0.000000 1.709736 0.580536 -0.000001 0.113772 1.960660 -88.303868 108.078188 0.000011 -0.669733 -0.113771 0.388340 -0.077853 3.349766 96.901144 
0.000000 0.000000 0.000000 -0.000000 1.019410 -30.010263 -0.000000 -0.000000 1.456275 0.000001 -20.135085 0.000002 -0.000000 0.000002 1.471446 0.000001 -1.133457 19.862945 0.625745 0.000000 0.917755 0.000003 118.942226 -0.000004 -0.629533 0.000001 0.940221 0.000001 1.709736 0.554354 -0.000001 0.113772 1.960660 -88.303868 107.280934 0.000012 -0.669733 -0.113771 0.388340 -0.101558 3.367764 98.577750 
0.000000 0.000000 0.000000 -0.000000 1.019410 -28.833183 -0.000000 0.000000 1.456275 0.000000 -21.109593 0.000002 -0.000000 0.000002 1.471446 -0.000000 -1.133458 19.082715 0.625745 0.000000 0.917755 0.000003 119.572925 -0.000002 -0.629533 0.000001 0.940221 0.000001 1.709736 0.532066 -0.000001 0.113772 1.960661 -88.303868 106.602294 0.000011 -0.669733 -0.113771 0.388339 -0.122142 3.382534 100.004946 
0.000000 0.000000 0.000000 -0.000000 1.019410 -27.469382 -0.000000 -0.000000 1.456275 0.000000 -22.238691 0.000000 -0.000000 0.000002 1.471445 -0.000001 -1.133459 18.178723 0.625745 0.000000 0.917755 0.000005 120.303687 -0.000003 -0.629534 0.000001 0.940221 -0.000000 1.709737 0.506244 -0.000001 0.113772 1.960660 -88.303868 105.815989 0.000008 -0.669733 -0.113771 0.388340 -0.146444 3.399003 101.658582 
0.000000 0.000000 0.000000 -0.000000 1.019410 -25.643146 -0.000000 -0.000000 1.456275 -0.000001 -23.750636 0.000001 -0.000000 0.000002 1.471445 0.000000 -1.133459 16.968196 0.625745 0.000000 0.917754 0.000007 121.282221 -0.000002 -0.629533 0.000001 0.940221 -0.000002 1.709737 0.471665 -0.000001 0.113772 1.960660 -88.303875 104.763088 0.000016 -0.669733 -0.113771 0.388340 -0.179716 3.419944 103.872977 
0.000000 0.000000 0.000000 -0.000000 1.019410 -23.545692 -0.000000 -0.000000 1.456275 0.000001 -25.487128 0.000001 -0.000000 0.000002 1.471446 0.000001 -1.133459 15.577899 0.625745 0.000000 0.917755 0.000008 122.406088 -0.000001 -0.629534 0.000001 0.940221 0.000001 1.709736 0.431952 -0.000001 0.113772 1.960661 -88.303868 103.553809 0.000010 -0.669733 -0.113771 0.388340 -0.218892 3.442391 106.416301 
